<svg width="24" height="24" viewBox="0 0 24 24" fill="none" xmlns="http://www.w3.org/2000/svg">
<g clip-path="url(#clip0_1_1566)">
<path d="M12.6446 23.7806C11.9692 23.7803 11.295 23.7253 10.6286 23.616C7.36881 23.0811 4.45462 21.2742 2.52607 18.5922C0.597523 15.9103 -0.187699 12.5725 0.342866 9.31201C0.639761 7.45587 1.3553 5.69166 2.43526 4.15311C3.51521 2.61456 4.93124 1.34205 6.57601 0.432013C6.8535 0.276967 7.16969 0.204882 7.48696 0.224332C7.80424 0.243782 8.10925 0.353948 8.36572 0.541728C8.62788 0.7211 8.83226 0.97279 8.95399 1.26618C9.07573 1.55957 9.10959 1.88202 9.05144 2.1943L8.16001 2.12573L9.00344 2.27658C8.52759 4.80069 8.97226 7.41175 10.2568 9.63605C11.5413 11.8604 13.5805 13.5506 16.0046 14.4C17.8713 15.0479 19.8796 15.1735 21.8126 14.7634C22.1184 14.7034 22.435 14.73 22.7265 14.8403C23.0181 14.9505 23.273 15.14 23.4627 15.3874C23.6523 15.6347 23.7691 15.9302 23.7998 16.2403C23.8305 16.5505 23.774 16.8631 23.6366 17.1429C22.579 19.1424 20.9973 20.8165 19.0609 21.9858C17.1246 23.1551 14.9066 23.7755 12.6446 23.7806ZM7.31658 1.98173C6.00501 2.72541 4.86463 3.7368 3.96958 4.95013C3.07453 6.16347 2.44485 7.55158 2.12147 9.02424C1.79809 10.4969 1.78826 12.0211 2.09261 13.4978C2.39696 14.9745 3.00869 16.3707 3.88801 17.5954C4.94785 19.0769 6.36714 20.2645 8.01236 21.0463C9.65758 21.8282 11.4747 22.1787 13.2927 22.0649C15.1107 21.951 16.8698 21.3766 18.4046 20.3956C19.9395 19.4146 21.1995 18.0593 22.0663 16.4572C19.8607 16.9005 17.5769 16.7491 15.4492 16.0183C12.6417 15.0339 10.2788 13.078 8.78739 10.5038C7.29594 7.92961 6.77426 4.90692 7.31658 1.98173Z" fill="#EAECF0"/>
</g>
<defs>
<clipPath id="clip0_1_1566">
<rect width="24" height="24" fill="white"/>
</clipPath>
</defs>
</svg>
