<svg width="24" height="24" viewBox="0 0 24 24" fill="none" xmlns="http://www.w3.org/2000/svg">
<path d="M12 8.48C12.6962 8.48 13.3767 8.68644 13.9556 9.07323C14.5345 9.46001 14.9856 10.0098 15.2521 10.653C15.5185 11.2962 15.5882 12.0039 15.4524 12.6867C15.3165 13.3695 14.9813 13.9967 14.489 14.489C13.9967 14.9813 13.3695 15.3165 12.6867 15.4524C12.0039 15.5882 11.2962 15.5185 10.653 15.2521C10.0098 14.9856 9.46001 14.5345 9.07323 13.9556C8.68645 13.3767 8.48 12.6962 8.48 12C8.48264 11.0672 8.85434 10.1735 9.5139 9.5139C10.1735 8.85434 11.0673 8.48264 12 8.48ZM12 7C11.0111 7 10.0444 7.29324 9.22215 7.84265C8.39991 8.39206 7.75904 9.17295 7.3806 10.0866C7.00217 11.0002 6.90315 12.0055 7.09608 12.9755C7.289 13.9454 7.76521 14.8363 8.46447 15.5355C9.16373 16.2348 10.0546 16.711 11.0246 16.9039C11.9945 17.0969 12.9998 16.9978 13.9134 16.6194C14.827 16.241 15.6079 15.6001 16.1574 14.7779C16.7068 13.9556 17 12.9889 17 12C17 10.6739 16.4732 9.40215 15.5355 8.46447C14.5979 7.52678 13.3261 7 12 7Z" fill="#1C1917"/>
<path d="M12 22C11.8019 21.9975 11.6126 21.9176 11.4725 21.7775C11.3324 21.6374 11.2526 21.4482 11.25 21.25V18.67C11.25 18.4711 11.329 18.2804 11.4697 18.1397C11.6103 17.9991 11.8011 17.92 12 17.92C12.1989 17.92 12.3897 17.9991 12.5303 18.1397C12.671 18.2804 12.75 18.4711 12.75 18.67V21.25C12.7474 21.4482 12.6676 21.6374 12.5275 21.7775C12.3874 21.9176 12.1981 21.9975 12 22Z" fill="#1C1917"/>
<path d="M22 12C21.9974 12.1981 21.9175 12.3874 21.7774 12.5275C21.6374 12.6676 21.4481 12.7474 21.25 12.75H18.67C18.4711 12.75 18.2803 12.671 18.1397 12.5303C17.999 12.3897 17.92 12.1989 17.92 12C17.92 11.8011 17.999 11.6103 18.1397 11.4697C18.2803 11.329 18.4711 11.25 18.67 11.25H21.25C21.4481 11.2526 21.6374 11.3324 21.7774 11.4725C21.9175 11.6126 21.9974 11.8019 22 12Z" fill="#1C1917"/>
<path d="M6.08 12C6.07741 12.1981 5.99756 12.3874 5.85747 12.5275C5.71737 12.6676 5.52811 12.7474 5.33 12.75H2.75C2.55109 12.75 2.36032 12.671 2.21967 12.5303C2.07902 12.3897 2 12.1989 2 12C2 11.8011 2.07902 11.6103 2.21967 11.4697C2.36032 11.329 2.55109 11.25 2.75 11.25H5.33C5.52811 11.2526 5.71737 11.3324 5.85747 11.4725C5.99756 11.6126 6.07741 11.8019 6.08 12Z" fill="#1C1917"/>
<path d="M12 6.08C11.8019 6.07741 11.6126 5.99756 11.4725 5.85747C11.3324 5.71737 11.2526 5.52811 11.25 5.33V2.75C11.25 2.55109 11.329 2.36032 11.4697 2.21967C11.6103 2.07902 11.8011 2 12 2C12.1989 2 12.3897 2.07902 12.5303 2.21967C12.671 2.36032 12.75 2.55109 12.75 2.75V5.33C12.7474 5.52811 12.6676 5.71737 12.5275 5.85747C12.3874 5.99756 12.1981 6.07741 12 6.08Z" fill="#1C1917"/>
<path d="M4.92002 19.07C4.77957 18.9294 4.70068 18.7388 4.70068 18.54C4.70068 18.3413 4.77957 18.1506 4.92002 18.01L6.74002 16.19C6.80897 16.1192 6.89139 16.063 6.98241 16.0246C7.07344 15.9862 7.17123 15.9664 7.27002 15.9664C7.36882 15.9664 7.46661 15.9862 7.55764 16.0246C7.64866 16.063 7.73108 16.1192 7.80002 16.19C7.94047 16.3306 8.01936 16.5212 8.01936 16.72C8.01936 16.9188 7.94047 17.1094 7.80002 17.25L6.00002 19.07C5.93006 19.1426 5.84618 19.2003 5.7534 19.2398C5.66062 19.2792 5.56084 19.2995 5.46002 19.2995C5.35921 19.2995 5.25943 19.2792 5.16665 19.2398C5.07387 19.2003 4.98999 19.1426 4.92002 19.07Z" fill="#1C1917"/>
<path d="M19.06 19.0701C18.9194 19.2105 18.7287 19.2894 18.53 19.2894C18.3312 19.2894 18.1406 19.2105 18 19.0701L16.18 17.2501C16.0475 17.1079 15.9754 16.9198 15.9788 16.7255C15.9822 16.5312 16.061 16.3459 16.1984 16.2084C16.3358 16.071 16.5212 15.9923 16.7155 15.9889C16.9098 15.9855 17.0978 16.0576 17.24 16.1901L19.06 18.0001C19.131 18.0699 19.1875 18.1531 19.226 18.245C19.2645 18.3368 19.2844 18.4355 19.2844 18.5351C19.2844 18.6347 19.2645 18.7333 19.226 18.8251C19.1875 18.917 19.131 19.0003 19.06 19.0701Z" fill="#1C1917"/>
<path d="M7.80002 7.81001C7.6594 7.95046 7.46877 8.02935 7.27002 8.02935C7.07127 8.02935 6.88065 7.95046 6.74002 7.81001L4.92002 6.00001C4.77957 5.85938 4.70068 5.66876 4.70068 5.47001C4.70068 5.27126 4.77957 5.08064 4.92002 4.94001C4.98855 4.86549 5.07164 4.80583 5.16415 4.76471C5.25666 4.7236 5.35662 4.7019 5.45786 4.70096C5.55909 4.70002 5.65944 4.71987 5.75269 4.75926C5.84595 4.79866 5.93013 4.85678 6.00002 4.93001L7.80002 6.75001C7.94047 6.89064 8.01936 7.08126 8.01936 7.28001C8.01936 7.47876 7.94047 7.66938 7.80002 7.81001Z" fill="#1C1917"/>
<path d="M16.18 7.80999C16.1092 7.74105 16.053 7.65863 16.0146 7.5676C15.9762 7.47658 15.9564 7.37878 15.9564 7.27999C15.9564 7.1812 15.9762 7.0834 16.0146 6.99238C16.053 6.90135 16.1092 6.81894 16.18 6.74999L18 4.92999C18.0689 4.85923 18.1514 4.803 18.2424 4.7646C18.3334 4.7262 18.4312 4.70642 18.53 4.70642C18.6288 4.70642 18.7266 4.7262 18.8176 4.7646C18.9086 4.803 18.991 4.85923 19.06 4.92999C19.2004 5.07062 19.2793 5.26124 19.2793 5.45999C19.2793 5.65874 19.2004 5.84937 19.06 5.98999L17.24 7.80999C17.0994 7.95044 16.9087 8.02933 16.71 8.02933C16.5112 8.02933 16.3206 7.95044 16.18 7.80999Z" fill="#1C1917"/>
</svg>
